<?xml version="1.0" encoding="UTF-8"?>
<svg viewBox="0 0 300 300" xmlns="http://www.w3.org/2000/svg">
 <path d="m37.939 39.086c-43.273 43.272-43.379 114.16-0.10599 157.43 36.663 36.663 93.202 42.25 135.92 16.766l76.344 74.235c10.507 10.198 27.085 9.821 37.117-0.84399 10.033-10.665 9.77-27.446-0.73798-37.644l-75.183-72.864c26.361-42.847 21.008-100.04-16.028-137.08-43.273-43.273-114.06-43.273-157.33 0h8e-6zm31.739 31.739c26.102-26.102 67.746-26.102 93.848 0s26.102 67.746 0 93.848-67.746 26.102-93.848 0-26.102-67.746 0-93.848z" fill="#92959c" stroke-width="9.756"/>
</svg>
