<?xml version="1.0" encoding="UTF-8"?>
<svg version="1.1" viewBox="0 0 130.03088 65.879068" xmlns="http://www.w3.org/2000/svg">
 <defs>
  <linearGradient id="a" x1="235.66" x2="233.52" y1="242.37" y2="296.38" gradientUnits="userSpaceOnUse">
   <stop stop-color="#794000" offset="0"/>
   <stop stop-color="#94622d" offset=".59349"/>
   <stop stop-color="#895014" offset=".73115"/>
   <stop stop-color="#341b00" offset=".93747"/>
   <stop stop-color="#412200" offset="1"/>
  </linearGradient>
 </defs>
 <g transform="translate(-171.14 -236.84)">
  <path d="m228.52 242.72s-6.1805-1.5244-8.8108-1.4566c-7.5267 0.19397-15.131 1.9605-22.223 4.487-7.8908 2.8108-18.326 12.305-19.652 16.326-1.2687 3.7383-2.8186 10.17-2.0663 17.009 0.34744 7.1175 7.6542 13.236 13.385 14.142 21.284 2.4604 42.624 4.4822 64.145 5.0508 0 0 3.944-1.1681 5.8084-2.0203 5.2134-2.3832 9.7925-5.9834 14.9-8.5863 4.5996-2.3442 14.142-6.3135 14.142-6.3135 4.7531-2.1219 8.0479-5.4645 8.5863-14.9 0.19145-3.355-3.4798-12.943-12.627-16.415-3.835-2.4403-11.932-5.9844-21.466-6.3134 0 0-4.2497-0.38136-7.3645-0.23505-1.1558 0.0543-1.3853 1.0282-2.2906 0.90338-2.9282-0.40356-6.7266-3.0305-8.7802-2.9412l-13.448 0.0153c-0.64791-0.17066-1.3525-1e-3 -2.237 1.2474z" fill="url(#a)" fill-rule="evenodd" stroke="#380000" stroke-width="1.7717"/>
  <path d="m220.09 241.47c-6.0447 4.9675-6.3114 11.447-9.375 17.054 6.8452-5.7738 10.297-11.197 22.411-16.964h-3.0357c-0.65476 0-1.1905 0.47619-1.6072 1.4286z" fill="#b6722b" fill-rule="evenodd" stroke="#380000" stroke-linecap="round" stroke-linejoin="round" stroke-width="1.7717"/>
  <path d="m245.45 241.74c-12.708 7.9972-12.076 14.934-13.929 19.196 6.2679-6.0394 11.966-12.15 23.75-17.5l-3.75 0.80357c-1.8994-0.92262-4.3852-1.5774-6.0714-2.5z" fill="#b6722b" fill-rule="evenodd" stroke="#380000" stroke-linecap="round" stroke-linejoin="round" stroke-width="1.7717"/>
  <path d="m287.5 251.65c-6.3401-1.928-12.743-3.3507-19.554-1.5179-9.966 2.7424-15.72 9.6964-21.25 16.875-4.6371 6.0199-4.179 27.311 5.8036 31.161 6.4825-1.0832 14.044-5.6187 21.696-10.446l16.607-7.7679c2.7399-2.9721 6.1014-4.5577 5.8929-14.107 0.30789-1.337-3.2264-10.831-9.1964-14.196z" fill="#e3ac73" fill-rule="evenodd" stroke="#380000" stroke-width="1.7717"/>
  <path d="m253.48 270.13c-1.1911 0.23857-2.4291 2.0439-1.875 3.125 0.49038 0.9568 2.3658 0.92811 3.2143 0.26786 0.57151-0.4447 0.62931-1.4718 0.35714-2.1429-0.264-0.65091-1.0077-1.388-1.6964-1.25z" fill="#ae7338" fill-rule="evenodd" stroke="#562500" stroke-width="1.063"/>
  <path d="m266.24 262.17c-1.2212 0.1897-2.4903 1.6252-1.9223 2.4848 0.50275 0.76081 2.4254 0.73799 3.2953 0.21299 0.58592-0.3536 0.64517-1.1703 0.36614-1.7039-0.27065-0.51757-1.0331-1.1036-1.7392-0.99394z" fill="#ae7338" fill-rule="evenodd" stroke="#562500" stroke-width="1.063"/>
  <path d="m282.16 262.29c-1.5894 0.23025-3.2412 1.9727-2.5019 3.016 0.65433 0.92344 3.1567 0.89575 4.289 0.25852 0.76259-0.42919 0.83971-1.4205 0.47654-2.0681-0.35226-0.62821-1.3446-1.3396-2.2636-1.2064z" fill="#ae7338" fill-rule="evenodd" stroke="#562500" stroke-width="1.063"/>
  <path d="m251.6 281.06c-1.1911 0.23857-2.4291 2.0439-1.875 3.125 0.49038 0.9568 2.3658 0.92811 3.2143 0.26786 0.57151-0.4447 0.62931-1.4718 0.35714-2.1429-0.264-0.65091-1.0077-1.388-1.6964-1.25z" fill="#ae7338" fill-rule="evenodd" stroke="#562500" stroke-width="1.063"/>
  <path d="m290.19 271.06c-0.88591 0.22156-1.8066 1.8982-1.3946 2.9022 0.36472 0.88858 1.7596 0.86194 2.3907 0.24876 0.42506-0.41299 0.46805-1.3669 0.26562-1.9901-0.19635-0.6045-0.74948-1.289-1.2617-1.1609z" fill="#ae7338" fill-rule="evenodd" stroke="#562500" stroke-width="1.063"/>
  <path d="m264.75 272.58c-0.88845 0.21658-1.8118 1.8556-1.3986 2.837 0.36577 0.86862 1.7646 0.84257 2.3975 0.24318 0.42628-0.40372 0.46939-1.3362 0.26638-1.9454-0.19691-0.59092-0.75163-1.26-1.2654-1.1348z" fill="#ae7338" fill-rule="evenodd" stroke="#562500" stroke-width="1.063"/>
  <path d="m277.64 273.76c-0.7898 0.17495-1.6106 1.4989-1.2433 2.2917 0.32516 0.70165 1.5687 0.68061 2.1313 0.19643 0.37895-0.32612 0.41728-1.0793 0.23681-1.5714-0.17505-0.47734-0.66818-1.0178-1.1248-0.91667z" fill="#ae7338" fill-rule="evenodd" stroke="#562500" stroke-width="1.063"/>
  <path d="m273.55 266.29c-0.71804-0.0994-1.7713 0.67681-1.6722 1.3963 0.0877 0.63681 1.1498 0.98932 1.758 0.78324 0.40961-0.1388 0.64463-0.70753 0.62358-1.14-0.0204-0.41953-0.29412-0.98201-0.7093-1.0395z" fill="#ae7338" fill-rule="evenodd" stroke="#562500" stroke-width="1.063"/>
  <path d="m223.93 241.92c-1.6667 1.6279-3.3333 2.5258-5 5" fill="none" stroke="#380000" stroke-linecap="round" stroke-width="1.7717"/>
  <path d="m249.68 243.56c-2.381 1.0922-5.744 2.3473-7.4107 4.8214" fill="none" stroke="#380000" stroke-linecap="round" stroke-width="1.7717"/>
  <path d="m175.89 273.26c1.6655 2.7901 3.4729 4.4788 5.625 4.2857l6.9643-0.625c3.1468-0.28241 6.1163 0.22583 9.2857 5.8036 3.1675 5.5744 5.0684 3.363 6.6964 1.9643 4.0026-3.4387 7.6876-4.9409 11.518-4.0179 4.0732 0.98157 4.6574 11.115 12.589 2.6786 1.5982-1.6999 3.2527-3.4121 4.1964-1.3393 4.0438 8.8819 6.0167 7.6581 6.4286 5.1786 0.93219-5.6121 1.6887-14.532 4.1071-11.518 0.0631 6.6233-2.311 14.865 6.6964 22.054-20.952-0.99851-41.548-3.5956-62.5-5.5357 0 0-7.6602-4.0809-9.7321-8.3036-1.5366-3.1317-3.0832-12.649-1.875-10.625z" fill="#4e2800" fill-opacity=".10684" fill-rule="evenodd"/>
  <circle cx="186.06" cy="260.59" r=".69448" color="#000000" fill="#3c1e00"/>
  <circle cx="195.97" cy="252.83" r=".69448" color="#000000" fill="#3c1e00"/>
  <circle cx="205.19" cy="251.94" r=".69448" color="#000000" fill="#3c1e00"/>
  <circle cx="209.48" cy="246.26" r=".69448" color="#000000" fill="#3c1e00"/>
  <circle cx="227.92" cy="252.07" r=".69448" color="#000000" fill="#3c1e00"/>
  <circle cx="222.36" cy="258.76" r=".69448" color="#000000" fill="#3c1e00"/>
  <circle cx="214.78" cy="267.73" r=".69448" color="#000000" fill="#3c1e00"/>
  <circle cx="206.7" cy="264.44" r=".69448" color="#000000" fill="#3c1e00"/>
  <circle cx="197.23" cy="260.15" r=".69448" color="#000000" fill="#3c1e00"/>
  <circle cx="198.12" cy="266.34" r=".69448" color="#000000" fill="#3c1e00"/>
  <circle cx="190.29" cy="266.97" r=".69448" color="#000000" fill="#3c1e00"/>
  <circle cx="204.43" cy="274.17" r=".69448" color="#000000" fill="#3c1e00"/>
  <circle cx="211.5" cy="276.57" r=".69448" color="#000000" fill="#3c1e00"/>
  <circle cx="223.12" cy="271.01" r=".69448" color="#000000" fill="#3c1e00"/>
  <circle cx="230.31" cy="275.55" r=".69448" color="#000000" fill="#3c1e00"/>
  <circle cx="239.78" cy="271.39" r=".69448" color="#000000" fill="#3c1e00"/>
  <circle cx="242.18" cy="256.11" r=".69448" color="#000000" fill="#3c1e00"/>
  <circle cx="250.01" cy="256.11" r=".69448" color="#000000" fill="#3c1e00"/>
  <circle cx="257.08" cy="249.16" r=".69448" color="#000000" fill="#3c1e00"/>
  <circle cx="235.37" cy="278.59" r=".69448" color="#000000" fill="#3c1e00"/>
  <circle cx="236.5" cy="281.99" r=".69448" color="#000000" fill="#3c1e00"/>
  <circle cx="206.32" cy="280.48" r=".69448" color="#000000" fill="#3c1e00"/>
  <circle cx="203.92" cy="283.51" r=".69448" color="#000000" fill="#3c1e00"/>
  <circle cx="199.76" cy="281.24" r=".69448" color="#000000" fill="#3c1e00"/>
  <circle cx="196.1" cy="277.58" r=".69448" color="#000000" fill="#3c1e00"/>
  <circle cx="192.06" cy="274.8" r=".69448" color="#000000" fill="#3c1e00"/>
  <circle cx="186.88" cy="275.55" r=".69448" color="#000000" fill="#3c1e00"/>
  <circle cx="182.59" cy="275.43" r=".69448" color="#000000" fill="#3c1e00"/>
  <circle cx="179.3" cy="272.52" r=".69448" color="#000000" fill="#3c1e00"/>
  <circle cx="179.43" cy="269.12" r=".69448" color="#000000" fill="#3c1e00"/>
  <circle cx="262.77" cy="286.67" r=".69448" color="#000000" fill="#3c1e00"/>
  <circle cx="268.2" cy="283" r=".69448" color="#000000" fill="#3c1e00"/>
  <circle cx="270.72" cy="280.1" r=".69448" color="#000000" fill="#3c1e00"/>
  <circle cx="276.66" cy="271.39" r=".69448" color="#000000" fill="#3c1e00"/>
  <circle cx="282.46" cy="271.39" r=".69448" color="#000000" fill="#3c1e00"/>
  <circle cx="285.24" cy="268.36" r=".69448" color="#000000" fill="#3c1e00"/>
  <circle cx="289.53" cy="263.94" r=".69448" color="#000000" fill="#3c1e00"/>
  <circle cx="289.53" cy="260.02" r=".69448" color="#000000" fill="#3c1e00"/>
  <circle cx="272.49" cy="256.61" r=".69448" color="#000000" fill="#3c1e00"/>
  <circle cx="275.9" cy="261.16" r=".69448" color="#000000" fill="#3c1e00"/>
  <circle cx="273.88" cy="261.03" r=".69448" color="#000000" fill="#3c1e00"/>
  <circle cx="262.51" cy="259.39" r=".69448" color="#000000" fill="#3c1e00"/>
  <circle cx="256.96" cy="263.56" r=".69448" color="#000000" fill="#3c1e00"/>
  <circle cx="258.85" cy="269.24" r=".69448" color="#000000" fill="#3c1e00"/>
  <circle cx="256.2" cy="275.68" r=".69448" color="#000000" fill="#3c1e00"/>
  <circle cx="259.36" cy="280.1" r=".69448" color="#000000" fill="#3c1e00"/>
  <circle cx="258.22" cy="286.04" r=".69448" color="#000000" fill="#3c1e00"/>
  <circle cx="260.24" cy="290.2" r=".69448" color="#000000" fill="#3c1e00"/>
  <circle cx="252.92" cy="289.7" r=".69448" color="#000000" fill="#3c1e00"/>
  <circle cx="255.32" cy="292.85" r=".69448" color="#000000" fill="#3c1e00"/>
  <circle cx="249.76" cy="290.71" r=".69448" color="#000000" fill="#3c1e00"/>
  <circle cx="249.38" cy="276.69" r=".69448" color="#000000" fill="#3c1e00"/>
  <circle cx="261.5" cy="292.98" r=".69448" color="#000000" fill="#3c1e00"/>
  <circle cx="264.79" cy="291.21" r=".69448" color="#000000" fill="#3c1e00"/>
  <circle cx="267.82" cy="289.07" r=".69448" color="#000000" fill="#3c1e00"/>
  <circle cx="270.22" cy="287.93" r=".69448" color="#000000" fill="#3c1e00"/>
  <circle cx="273.75" cy="286.41" r=".69448" color="#000000" fill="#3c1e00"/>
  <circle cx="276.15" cy="284.65" r=".69448" color="#000000" fill="#3c1e00"/>
  <circle cx="279.05" cy="283.64" r=".69448" color="#000000" fill="#3c1e00"/>
  <circle cx="281.58" cy="283" r=".69448" color="#000000" fill="#3c1e00"/>
  <circle cx="285.12" cy="281.11" r=".69448" color="#000000" fill="#3c1e00"/>
  <circle cx="287.89" cy="279.47" r=".69448" color="#000000" fill="#3c1e00"/>
  <circle cx="290.17" cy="278.46" r=".69448" color="#000000" fill="#3c1e00"/>
  <circle cx="293.58" cy="274.04" r=".69448" color="#000000" fill="#3c1e00"/>
  <circle cx="282.46" cy="279.72" r=".69448" color="#000000" fill="#3c1e00"/>
  <circle cx="278.17" cy="281.24" r=".69448" color="#000000" fill="#3c1e00"/>
  <circle cx="257.72" cy="280.1" r=".69448" color="#000000" fill="#3c1e00"/>
  <circle cx="221.34" cy="282.9" r=".31567" color="#000000" fill="#3c1e00"/>
  <circle cx="220.62" cy="279.77" r=".31567" color="#000000" fill="#3c1e00"/>
  <circle cx="222.54" cy="281.29" r=".31567" color="#000000" fill="#3c1e00"/>
  <circle cx="224.42" cy="283.17" r=".31567" color="#000000" fill="#3c1e00"/>
  <circle cx="225" cy="280.8" r=".31567" color="#000000" fill="#3c1e00"/>
  <circle cx="235.54" cy="284.37" r=".31567" color="#000000" fill="#3c1e00"/>
  <circle cx="236.21" cy="286.56" r=".31567" color="#000000" fill="#3c1e00"/>
  <circle cx="238.21" cy="285.49" r=".31567" color="#000000" fill="#3c1e00"/>
  <circle cx="239.2" cy="283.39" r=".31567" color="#000000" fill="#3c1e00"/>
  <circle cx="205.94" cy="282.32" r=".31567" color="#000000" fill="#3c1e00"/>
  <circle cx="205" cy="282.09" r=".31567" color="#000000" fill="#3c1e00"/>
  <circle cx="202.41" cy="281.38" r=".31567" color="#000000" fill="#3c1e00"/>
  <circle cx="201.83" cy="283.26" r=".31567" color="#000000" fill="#3c1e00"/>
  <circle cx="200.36" cy="284.91" r=".31567" color="#000000" fill="#3c1e00"/>
  <circle cx="201.56" cy="285.17" r=".31567" color="#000000" fill="#3c1e00"/>
  <circle cx="199.42" cy="282.85" r=".31567" color="#000000" fill="#3c1e00"/>
  <circle cx="197.77" cy="279.82" r=".31567" color="#000000" fill="#3c1e00"/>
  <circle cx="192.81" cy="276.78" r=".31567" color="#000000" fill="#3c1e00"/>
  <circle cx="190.89" cy="277.01" r=".31567" color="#000000" fill="#3c1e00"/>
  <circle cx="189.15" cy="275.44" r=".31567" color="#000000" fill="#3c1e00"/>
  <circle cx="184.96" cy="275.89" r=".31567" color="#000000" fill="#3c1e00"/>
  <circle cx="184.11" cy="276.96" r=".31567" color="#000000" fill="#3c1e00"/>
  <circle cx="180.94" cy="276.51" r=".31567" color="#000000" fill="#3c1e00"/>
  <circle cx="181.12" cy="272.72" r=".31567" color="#000000" fill="#3c1e00"/>
  <circle cx="178.66" cy="275.09" r=".31567" color="#000000" fill="#3c1e00"/>
  <circle cx="178.17" cy="273.7" r=".31567" color="#000000" fill="#3c1e00"/>
  <circle cx="177.86" cy="271.38" r=".31567" color="#000000" fill="#3c1e00"/>
  <circle cx="179.96" cy="271.25" r=".31567" color="#000000" fill="#3c1e00"/>
  <circle cx="222.32" cy="285.8" r=".31567" color="#000000" fill="#3c1e00"/>
  <circle cx="224.24" cy="284.86" r=".31567" color="#000000" fill="#3c1e00"/>
  <circle cx="226.43" cy="282.85" r=".31567" color="#000000" fill="#3c1e00"/>
  <circle cx="225.18" cy="280.17" r=".31567" color="#000000" fill="#3c1e00"/>
  <circle cx="217.68" cy="280.26" r=".31567" color="#000000" fill="#3c1e00"/>
  <circle cx="200.8" cy="280.09" r=".31567" color="#000000" fill="#3c1e00"/>
  <circle cx="198.66" cy="277.67" r=".31567" color="#000000" fill="#3c1e00"/>
  <circle cx="194.6" cy="276.38" r=".31567" color="#000000" fill="#3c1e00"/>
  <circle cx="187.41" cy="274.33" r=".31567" color="#000000" fill="#3c1e00"/>
  <circle cx="183.75" cy="274.33" r=".31567" color="#000000" fill="#3c1e00"/>
  <circle cx="248.53" cy="288.03" r=".31567" color="#000000" fill="#3c1e00"/>
  <circle cx="273.12" cy="273.84" r=".31567" color="#000000" fill="#3c1e00"/>
  <circle cx="267.32" cy="269.19" r=".31567" color="#000000" fill="#3c1e00"/>
  <circle cx="266.56" cy="254.1" r=".31567" color="#000000" fill="#3c1e00"/>
  <circle cx="272.63" cy="252.94" r=".31567" color="#000000" fill="#3c1e00"/>
  <circle cx="278.12" cy="252.85" r=".31567" color="#000000" fill="#3c1e00"/>
  <circle cx="283.62" cy="254.46" r=".31567" color="#000000" fill="#3c1e00"/>
  <circle cx="290.49" cy="269.15" r=".31567" color="#000000" fill="#3c1e00"/>
  <circle cx="292.77" cy="269.01" r=".31567" color="#000000" fill="#3c1e00"/>
  <circle cx="292.5" cy="265.31" r=".31567" color="#000000" fill="#3c1e00"/>
  <circle cx="273.21" cy="282.5" r=".31567" color="#000000" fill="#3c1e00"/>
  <circle cx="276.03" cy="280.89" r=".31567" color="#000000" fill="#3c1e00"/>
  <circle cx="286.25" cy="277.81" r=".31567" color="#000000" fill="#3c1e00"/>
 </g>
</svg>
